<svg xmlns="http://www.w3.org/2000/svg" viewBox="0 0 512 512">
  <rect width="512" height="512" rx="112" fill="#0f172a"/>
  <circle cx="180" cy="172" r="72" fill="#facc15"/>
  <path d="M164 342h205c48 0 87-36 87-81s-39-81-87-81c-11 0-22 2-32 6-25-39-70-65-121-65-78 0-142 58-147 132-40 8-70 44-70 87 0 49 40 88 89 88h76z" fill="#e0f2fe"/>
  <path d="M145 352h256c35 0 64-29 64-64 0-20-9-38-23-50 9 31-15 65-57 65H130c-34 0-59-18-67-44-7 10-11 23-11 36 0 31 26 57 93 57z" fill="#38bdf8" opacity=".7"/>
</svg>
